<svg width="47" height="47" viewBox="0 0 47 47" fill="none" xmlns="http://www.w3.org/2000/svg">
<path d="M34.8479 23.5446C26.9397 28.1125 19.3155 32.5182 11.6869 36.9283C10.8814 37.3929 10.0649 37.8174 9.1307 37.9508C5.70248 38.4465 2.62485 36.0014 2.57159 32.5204C2.49393 26.5299 2.45399 20.5349 2.57159 14.5466C2.65813 10.072 7.28235 7.63799 11.2586 9.89417C16.3829 12.8002 21.4812 15.7506 26.5536 18.7455C27.4123 19.2523 28.0536 19.319 28.9278 18.7633C30.7673 17.5941 32.7 16.556 34.8146 15.329L15.3437 4.06589C17.9354 2.68773 20.0233 0.760534 22.8569 0.22483C24.0862 0.00254664 25.2822 0.28707 26.3717 0.916133C31.4737 3.86065 36.572 6.81184 41.6666 9.76969C43.546 10.8656 44.4824 12.5616 44.4891 14.7266C44.5068 20.5712 44.5068 26.4165 44.4891 32.2626C44.4891 34.4854 43.5061 36.197 41.5734 37.3173C36.606 40.1981 31.6327 43.073 26.6535 45.9419C24.5743 47.1445 22.5019 47.16 20.4228 45.9419L15.3481 43.0011C18.0108 41.4451 20.4871 40.0114 22.9612 38.5821C26.5847 36.4882 30.2059 34.3854 33.8494 32.327C34.5639 31.9247 34.8945 31.489 34.8701 30.6243C34.8035 28.3526 34.8479 26.0764 34.8479 23.5446Z" fill="#2977EF"/>
</svg>